<?xml version="1.0" standalone="no"?>
<!DOCTYPE svg PUBLIC "-//W3C//DTD SVG 20010904//EN"
 "http://www.w3.org/TR/2001/REC-SVG-20010904/DTD/svg10.dtd">
<svg version="1.0" xmlns="http://www.w3.org/2000/svg"
 width="1280.000000pt" height="720.000000pt" viewBox="0 0 1280.000000 720.000000"
 preserveAspectRatio="xMidYMid meet">

<g transform="translate(0.000000,720.000000) scale(0.100000,-0.100000)"
fill="#000000" stroke="none">
<path d="M5513 4475 c-21 -15 -63 -121 -63 -159 0 -11 5 -34 12 -53 10 -27 9
-42 -5 -86 -9 -30 -17 -64 -17 -77 0 -13 -11 -76 -24 -139 -14 -64 -34 -174
-45 -246 -11 -71 -33 -204 -48 -295 -15 -91 -28 -192 -28 -225 l0 -60 56 -3
c30 -2 68 2 83 7 35 14 69 86 55 114 -12 22 -6 268 9 342 5 28 21 96 36 152
14 56 26 126 25 155 0 38 9 74 30 127 17 40 31 77 31 83 0 19 63 87 91 97 22
8 28 7 31 -6 3 -16 -7 -191 -20 -343 -4 -47 -4 -101 0 -120 27 -130 43 -190
61 -227 18 -36 26 -43 61 -49 75 -13 128 -6 170 24 67 45 166 154 191 207 13
28 31 57 41 65 9 8 34 50 55 93 20 42 51 93 67 111 25 29 43 67 78 165 4 12 7
12 20 -1 25 -25 28 -87 7 -153 -16 -50 -19 -84 -16 -200 2 -77 3 -183 2 -236
0 -60 4 -99 10 -104 6 -3 11 -28 11 -55 0 -27 5 -52 10 -55 6 -4 10 -23 9 -44
-2 -20 1 -42 5 -49 10 -16 33 -107 41 -166 5 -30 18 -60 34 -80 15 -17 33 -41
41 -54 9 -14 38 -31 73 -43 52 -18 60 -18 87 -4 16 8 36 15 44 15 21 0 76 49
76 67 0 21 -48 66 -85 78 -53 18 -175 229 -175 303 0 13 -8 37 -17 55 -28 51
-47 164 -47 282 -1 61 -4 115 -9 122 -4 6 -2 24 4 40 10 26 15 80 23 253 1 43
11 87 29 129 24 58 26 68 15 104 -6 21 -17 41 -22 43 -55 19 -162 3 -188 -28
-13 -14 -18 -38 -18 -79 0 -60 -36 -183 -71 -244 -9 -16 -20 -41 -24 -55 -4
-13 -33 -63 -63 -110 -30 -47 -66 -109 -78 -138 -53 -118 -264 -269 -264 -188
0 14 -9 40 -20 59 -18 30 -43 153 -34 168 2 3 8 36 14 73 7 47 7 72 0 87 -9
15 -7 30 4 62 10 27 17 91 19 184 5 159 7 154 -71 191 -31 15 -50 18 -66 12
-27 -10 -76 -66 -76 -86 0 -8 -9 -14 -20 -14 -12 0 -24 -10 -30 -24 -5 -13
-18 -31 -30 -39 -13 -9 -18 -20 -14 -31 4 -10 -1 -26 -14 -39 -11 -12 -25 -41
-31 -63 -13 -49 -41 -80 -41 -45 0 12 7 38 16 59 8 20 17 62 18 93 2 47 9 65
39 107 46 63 80 178 57 192 -23 15 -93 12 -117 -5z"/>
<path d="M970 4423 c-14 -10 -34 -29 -46 -42 -18 -21 -20 -30 -11 -60 15 -51
74 -111 109 -111 16 0 31 -7 34 -15 4 -8 17 -15 31 -15 14 0 33 -10 43 -22 14
-18 21 -20 30 -11 16 15 4 33 -21 33 -11 0 -19 7 -19 17 0 9 -10 27 -22 40
-42 45 -21 117 32 108 15 -3 63 -8 106 -11 44 -3 93 -7 109 -8 17 -1 40 -9 52
-16 18 -12 28 -12 58 -1 26 9 44 10 68 2 42 -14 131 -30 237 -43 48 -5 116
-23 160 -40 59 -23 84 -29 118 -24 28 4 56 0 82 -10 40 -16 40 -16 40 -71 0
-42 -8 -71 -32 -120 -17 -36 -38 -67 -45 -70 -7 -3 -13 -16 -13 -29 0 -13 -4
-24 -9 -24 -5 0 -11 -12 -14 -27 -6 -28 -122 -175 -191 -243 -91 -90 -160
-153 -276 -257 -103 -92 -127 -109 -134 -96 -5 10 -4 34 2 62 7 25 16 98 22
161 6 63 13 129 17 145 3 17 5 45 5 63 -1 19 6 50 14 70 25 57 43 142 44 198
0 37 8 66 29 106 16 30 33 71 36 91 10 52 -11 60 -104 39 -68 -14 -75 -18 -88
-49 -9 -23 -11 -50 -7 -83 5 -41 4 -51 -10 -56 -12 -5 -26 3 -44 23 -15 16
-39 35 -53 41 l-27 11 16 -32 c9 -18 24 -38 35 -46 14 -10 18 -21 13 -44 -3
-16 -1 -36 5 -43 7 -9 8 -27 3 -51 -4 -21 -9 -58 -10 -83 -6 -132 -13 -208
-22 -231 -6 -15 -8 -35 -6 -46 3 -10 -4 -55 -16 -99 -11 -43 -24 -120 -29
-170 -11 -125 -43 -174 -151 -229 -19 -10 -70 -48 -112 -84 -102 -87 -203
-164 -230 -174 -12 -4 -39 -23 -60 -43 -37 -33 -122 -92 -228 -159 -46 -29
-90 -79 -90 -103 0 -7 12 -12 28 -12 20 0 66 31 172 116 80 64 161 131 180
149 19 18 54 43 78 54 54 28 139 91 271 204 101 86 104 88 115 65 10 -20 20
-23 72 -26 60 -3 61 -2 99 39 36 40 37 44 33 100 l-4 59 60 47 c85 66 172 140
304 257 61 55 131 113 155 128 23 16 60 51 82 77 22 27 62 76 88 109 27 33 62
66 78 72 16 7 29 18 29 25 0 18 59 118 112 191 28 37 55 89 64 122 9 31 19 62
21 68 2 6 -14 19 -36 29 -35 15 -48 16 -103 6 -35 -6 -79 -10 -98 -9 -19 1
-80 -2 -136 -6 -84 -7 -105 -6 -132 8 -20 10 -57 16 -104 16 -40 0 -107 5
-148 11 -178 25 -208 29 -270 32 -37 2 -80 11 -99 21 -23 12 -44 16 -68 11
-28 -5 -40 -2 -59 16 -23 21 -24 21 -66 5 -38 -16 -43 -16 -54 -2 -15 21 -63
20 -94 -1z"/>
<path d="M9040 4423 c-14 -10 -34 -29 -46 -42 -18 -21 -20 -30 -11 -60 15 -51
74 -111 109 -111 16 0 31 -7 34 -15 4 -8 17 -15 31 -15 14 0 33 -10 43 -22 14
-18 21 -20 30 -11 16 15 4 33 -21 33 -11 0 -19 7 -19 17 0 9 -10 27 -22 40
-42 45 -21 117 32 108 15 -3 63 -8 106 -11 44 -3 93 -7 109 -8 17 -1 40 -9 52
-16 19 -12 28 -12 58 -1 27 9 44 10 63 2 31 -12 121 -28 242 -42 48 -6 117
-24 160 -41 59 -23 84 -29 118 -24 28 4 56 0 82 -10 40 -16 40 -16 40 -71 0
-42 -8 -71 -32 -120 -17 -36 -38 -67 -45 -70 -7 -3 -13 -16 -13 -29 0 -13 -4
-24 -9 -24 -5 0 -11 -12 -14 -27 -6 -28 -122 -175 -191 -243 -91 -90 -160
-153 -276 -257 -103 -92 -127 -109 -134 -96 -5 10 -4 34 2 62 7 25 16 98 22
161 6 63 13 129 17 145 3 17 5 45 5 63 -1 19 6 50 14 70 25 57 43 142 44 198
0 37 8 66 29 106 16 30 33 71 36 91 10 52 -11 60 -104 39 -68 -14 -75 -18 -88
-49 -9 -23 -11 -50 -7 -83 5 -41 4 -51 -10 -56 -12 -5 -26 3 -44 23 -15 16
-39 35 -53 41 l-27 11 16 -32 c9 -18 24 -38 35 -46 14 -10 18 -21 13 -44 -3
-16 -1 -36 5 -43 7 -9 8 -27 3 -51 -4 -21 -9 -58 -10 -83 -6 -132 -13 -208
-22 -231 -6 -15 -8 -36 -5 -47 2 -11 -5 -54 -17 -96 -11 -42 -25 -118 -29
-170 -11 -127 -42 -175 -151 -231 -19 -10 -70 -48 -112 -84 -100 -85 -203
-164 -228 -173 -11 -4 -49 -31 -84 -60 -35 -29 -85 -66 -111 -83 -27 -16 -69
-43 -95 -60 -44 -27 -90 -81 -90 -105 0 -5 12 -10 28 -10 20 0 66 31 172 116
80 64 161 131 180 149 19 18 54 43 78 54 54 28 139 91 271 204 101 86 104 88
115 65 10 -20 20 -23 72 -26 60 -3 61 -2 99 39 36 40 37 44 33 100 l-4 59 60
47 c85 66 172 140 304 257 61 55 131 113 155 128 23 16 60 51 82 77 22 27 62
76 88 109 27 33 62 66 78 72 16 7 29 18 29 25 0 18 59 118 112 191 28 37 55
89 64 122 9 31 19 62 21 68 2 6 -14 19 -36 29 -35 15 -48 16 -103 6 -35 -6
-79 -10 -98 -9 -38 2 -213 -12 -219 -18 -2 -2 -21 6 -42 16 -27 14 -59 20
-111 20 -40 0 -107 5 -148 11 -178 25 -208 29 -270 32 -37 2 -80 11 -99 21
-23 12 -44 16 -68 11 -28 -5 -40 -2 -59 16 -23 21 -24 21 -66 5 -38 -16 -43
-16 -54 -2 -15 21 -63 20 -94 -1z"/>
<path d="M3684 4419 c-3 -5 -13 -9 -23 -9 -21 0 -111 -92 -111 -114 0 -9 -8
-40 -18 -69 -10 -28 -17 -58 -15 -64 3 -7 -1 -30 -8 -50 -7 -21 -14 -47 -15
-58 -1 -11 -9 -58 -17 -105 -8 -47 -15 -94 -15 -105 -1 -81 -15 -242 -23 -262
-5 -13 -6 -35 -3 -49 l6 -24 -88 0 c-62 0 -98 -5 -119 -16 -16 -9 -58 -25 -93
-36 -50 -15 -67 -26 -82 -51 -11 -18 -48 -54 -83 -79 -64 -47 -219 -128 -245
-128 -20 0 -132 -51 -132 -60 0 -10 26 -20 54 -20 13 0 56 13 96 30 40 17 81
30 92 30 11 0 29 5 41 12 19 9 20 9 11 -3 -18 -23 -23 -58 -9 -69 6 -5 39 -13
71 -16 51 -5 70 -2 144 26 53 21 100 47 126 71 23 20 57 45 75 54 19 10 55 39
80 66 25 27 49 49 55 49 9 0 38 -66 48 -112 9 -41 60 -66 151 -74 139 -12 246
-8 295 10 25 10 66 21 92 26 26 5 96 36 155 68 l108 60 6 -29 c4 -17 14 -38
23 -48 9 -10 16 -28 16 -42 0 -50 53 -84 142 -92 36 -3 84 -11 105 -17 29 -9
45 -9 68 1 29 13 28 13 -36 19 -67 5 -102 22 -93 44 3 7 -7 18 -21 24 -17 8
-25 19 -25 37 0 14 -7 40 -16 57 -20 38 -15 157 7 186 8 11 29 38 46 62 27 35
31 46 21 58 -15 17 -98 12 -163 -10 -36 -12 -40 -17 -47 -57 -14 -85 -47 -139
-107 -176 -31 -19 -61 -35 -67 -35 -6 0 -19 -12 -29 -26 -14 -22 -22 -25 -53
-21 -27 3 -48 -2 -77 -18 -54 -31 -208 -53 -255 -37 -18 7 -43 12 -56 12 -39
0 -91 65 -97 122 -4 27 -9 54 -13 60 -4 6 -8 38 -9 72 -3 70 9 94 139 276 48
65 78 118 81 140 4 19 21 76 40 125 26 71 35 112 40 192 8 120 -3 166 -45 188
-30 15 -117 18 -126 4z m101 -92 c32 -27 34 -58 13 -202 -14 -93 -36 -152 -71
-194 -7 -9 -22 -38 -32 -66 -10 -27 -29 -60 -42 -73 -12 -12 -23 -28 -23 -34
0 -12 -69 -128 -77 -128 -8 0 5 139 21 215 8 39 13 79 10 90 -3 13 4 32 17 49
13 16 24 43 26 60 11 118 39 218 76 273 26 39 46 41 82 10z m-435 -937 c6 -21
-3 -34 -50 -82 -34 -34 -79 -67 -112 -81 -31 -14 -59 -30 -62 -36 -10 -15 -58
-14 -79 2 -16 11 -16 14 1 40 27 40 116 113 165 136 23 10 51 26 62 35 29 23
68 16 75 -14z"/>
<path d="M1180 4134 c-16 -18 -4 -34 26 -34 20 0 25 4 22 22 -4 25 -32 32 -48
12z"/>
<path d="M9250 4135 c-16 -19 -4 -35 26 -35 28 0 34 34 8 44 -21 8 -20 8 -34
-9z"/>
<path d="M2370 3862 c-32 -33 -37 -57 -16 -84 18 -24 48 -22 104 6 91 46 98
78 22 89 -19 3 -45 8 -57 12 -17 5 -29 0 -53 -23z"/>
<path d="M4480 3862 c-32 -33 -37 -57 -16 -84 18 -24 48 -22 104 6 91 46 98
78 22 89 -19 3 -45 8 -57 12 -17 5 -29 0 -53 -23z"/>
<path d="M2279 3605 c-64 -17 -65 -19 -72 -67 -3 -24 -18 -67 -32 -95 -29 -62
-30 -67 -10 -83 8 -7 15 -23 15 -35 0 -12 9 -34 20 -48 11 -14 20 -36 20 -49
0 -49 54 -83 142 -91 36 -3 84 -11 105 -17 29 -9 45 -9 68 1 29 13 28 13 -36
19 -67 5 -104 23 -95 45 2 7 -6 17 -20 24 -16 7 -24 19 -24 36 0 14 -7 40 -16
57 -20 38 -15 157 7 186 8 11 29 38 46 62 26 33 30 46 22 56 -14 17 -78 17
-140 -1z"/>
<path d="M7425 3603 c-16 -8 -43 -27 -58 -42 -26 -24 -35 -26 -120 -26 -84 -1
-100 -4 -179 -39 -107 -46 -188 -102 -208 -142 -8 -17 -27 -46 -41 -65 -49
-64 -59 -149 -18 -149 10 0 27 -9 38 -21 17 -19 31 -20 143 -21 74 0 134 4
146 11 11 6 36 11 54 11 18 1 51 8 73 16 75 29 75 29 75 0 0 -21 5 -26 24 -26
14 0 31 -6 38 -14 18 -18 152 -12 238 10 79 20 198 78 225 109 11 13 36 28 55
34 46 14 148 99 171 142 24 44 23 49 -4 49 -15 0 -46 -25 -93 -74 -71 -74
-184 -156 -214 -156 -8 0 -25 -7 -38 -15 -27 -20 -166 -44 -209 -38 -17 3 -46
18 -65 33 l-33 28 26 29 c53 59 58 71 78 188 7 37 5 57 -5 77 -8 15 -15 36
-17 47 -3 20 -35 61 -46 61 -3 -1 -19 -8 -36 -17z m-127 -135 c17 -17 15 -53
-7 -97 -16 -31 -18 -45 -10 -80 13 -57 6 -74 -45 -116 -36 -29 -51 -35 -90
-35 -26 0 -56 -5 -67 -11 -39 -21 -128 40 -129 87 0 33 57 147 89 178 30 29
177 86 222 86 14 0 30 -5 37 -12z m180 -78 c3 -40 -27 -103 -52 -108 -25 -5
-25 71 1 121 20 39 47 32 51 -13z"/>
<path d="M10373 3553 c-76 -42 -113 -145 -135 -377 -3 -26 1 -31 27 -37 17 -4
47 -14 67 -23 53 -23 87 -20 154 14 62 30 98 62 118 102 6 12 22 28 35 34 13
7 34 25 47 41 l23 28 1 -61 c0 -44 5 -65 16 -75 9 -7 23 -30 31 -51 l15 -38
95 0 c79 0 108 5 177 29 83 29 226 103 281 145 l30 23 2 -36 c4 -105 7 -115
35 -129 45 -21 157 -41 243 -43 159 -3 154 -4 202 43 23 23 43 46 43 51 0 5 9
20 20 34 11 14 20 34 20 43 0 28 44 29 122 3 60 -20 79 -23 113 -15 22 6 55
11 73 11 72 3 153 58 172 117 7 19 9 38 6 41 -9 9 -53 -16 -100 -58 -40 -35
-44 -36 -137 -42 -108 -6 -196 9 -241 43 -15 11 -35 20 -44 20 -31 0 -113 63
-114 87 0 28 -36 53 -75 52 -93 -1 -282 -87 -319 -144 -8 -13 -53 -48 -99 -79
-47 -30 -87 -62 -90 -71 -5 -10 -20 -15 -54 -15 -26 -1 -59 -7 -73 -15 -16 -9
-55 -14 -109 -15 -72 0 -87 3 -110 23 -25 21 -26 24 -16 74 6 28 13 55 18 59
4 4 7 21 7 39 0 17 5 36 11 42 6 6 9 28 7 49 l-3 39 -55 -3 c-44 -2 -59 -7
-77 -28 -13 -14 -23 -31 -23 -38 0 -8 -6 -19 -14 -25 -8 -7 -18 -27 -22 -44
-11 -52 -30 -72 -123 -131 -71 -45 -97 -56 -130 -56 -35 0 -42 4 -47 24 -3 13
-1 33 5 44 6 12 11 39 11 61 0 34 7 47 47 88 55 57 77 128 46 151 -24 17 -73
15 -110 -5z m1346 -155 c-5 -27 25 -68 57 -78 35 -12 74 -63 74 -96 -1 -36
-33 -60 -100 -74 -69 -14 -138 -14 -155 -1 -5 5 -22 11 -36 14 -44 11 -66 121
-31 163 26 31 89 64 125 64 18 0 39 5 47 10 20 13 21 12 19 -2z"/>
<path d="M5170 3408 c-11 -19 -48 -55 -83 -80 -64 -47 -219 -128 -245 -128
-20 0 -132 -51 -132 -60 0 -10 26 -20 54 -20 13 0 56 14 96 30 40 17 83 30 96
30 12 0 36 11 52 25 17 14 46 32 66 40 32 13 73 46 143 113 31 29 29 75 -4 80
-17 3 -28 -5 -43 -30z"/>
</g>
</svg>
