<?xml version="1.0" standalone="no"?>
<!DOCTYPE svg PUBLIC "-//W3C//DTD SVG 20010904//EN"
 "http://www.w3.org/TR/2001/REC-SVG-20010904/DTD/svg10.dtd">
<svg version="1.0" xmlns="http://www.w3.org/2000/svg"
 width="1280.000000pt" height="1280.000000pt" viewBox="0 0 1280.000000 1280.000000"
 preserveAspectRatio="xMidYMid meet">

<g transform="translate(0.000000,1280.000000) scale(0.100000,-0.100000)"
fill="#000000" stroke="none">
<path d="M10185 12224 c-27 -8 -63 -14 -78 -14 -36 0 -93 -39 -132 -89 -64
-82 -143 -177 -157 -188 -8 -7 -33 -19 -55 -27 -28 -10 -71 -45 -135 -108 -51
-51 -143 -139 -204 -194 l-110 -101 -80 -12 -80 -13 -140 -110 c-76 -60 -161
-121 -189 -135 -27 -14 -99 -57 -159 -95 -60 -38 -124 -75 -142 -83 -18 -7
-73 -45 -122 -84 -83 -65 -94 -71 -137 -71 -45 0 -52 -4 -105 -57 -76 -77
-187 -138 -264 -148 -79 -9 -141 -37 -160 -72 -8 -15 -30 -43 -49 -62 l-35
-33 -68 11 c-66 12 -69 12 -86 -11 -10 -13 -30 -46 -43 -74 -14 -27 -36 -61
-49 -73 -22 -21 -28 -22 -60 -11 -98 32 -197 -103 -210 -286 l-6 -91 85 -65
c85 -64 87 -65 168 -74 136 -14 159 -11 223 30 l58 36 21 -20 22 -20 59 35
c78 47 81 56 36 92 -52 42 -76 53 -112 53 -47 0 -95 27 -124 68 -31 46 -44
115 -25 138 17 21 169 123 234 158 28 14 73 46 101 70 29 24 74 52 100 61 30
11 63 34 85 59 35 40 39 41 103 42 37 1 73 7 81 14 8 7 29 37 46 66 37 65 75
95 154 121 33 11 103 48 155 82 91 59 110 67 207 91 31 8 52 22 78 54 23 28
52 50 83 61 26 10 70 33 97 50 28 18 61 38 75 45 23 12 24 12 11 -3 -7 -10 -9
-17 -3 -17 5 0 15 7 23 16 20 25 58 40 164 67 55 14 121 34 147 46 54 23 128
87 159 137 17 28 26 33 54 32 18 -1 48 8 67 19 19 11 56 23 84 26 l49 7 43
-69 c24 -38 60 -85 81 -104 36 -32 38 -39 45 -108 9 -101 31 -191 50 -205 20
-14 20 -25 -1 -91 l-17 -53 27 -28 c33 -34 36 -78 7 -87 -27 -8 -25 -23 2 -27
36 -5 60 -108 53 -218 -6 -81 -17 -342 -17 -385 0 -11 3 -63 7 -115 7 -90 6
-100 -24 -186 -17 -50 -33 -120 -36 -155 -9 -129 -51 -440 -71 -534 -9 -38
-22 -110 -30 -160 -19 -124 -92 -456 -93 -424 -1 19 -12 34 -36 50 -38 26 -63
70 -91 159 -9 30 -25 64 -34 75 -24 29 -186 268 -234 346 -23 36 -52 84 -66
105 -14 21 -39 68 -55 104 -16 37 -51 89 -81 120 -53 57 -63 78 -104 233 -32
122 -148 344 -221 422 -46 50 -76 130 -84 225 -5 64 -16 105 -42 167 -64 149
-107 168 -195 86 -28 -27 -65 -69 -82 -95 -17 -26 -53 -71 -79 -102 l-48 -55
12 -63 c17 -89 32 -114 111 -189 66 -63 71 -70 76 -118 6 -67 -6 -71 -116 -38
-74 22 -89 24 -111 13 -14 -8 -53 -21 -85 -31 -43 -12 -56 -19 -45 -26 8 -5
21 -9 30 -9 10 0 37 -11 60 -25 33 -18 59 -25 102 -25 64 0 74 -7 141 -100 27
-38 38 -45 66 -46 34 0 35 -1 82 -108 37 -84 59 -118 96 -155 34 -32 63 -76
96 -143 33 -67 67 -118 110 -165 53 -58 67 -82 95 -159 29 -81 37 -95 75 -121
38 -27 47 -42 80 -129 20 -55 42 -108 48 -119 22 -40 28 -52 87 -175 45 -96
74 -141 120 -192 48 -52 67 -83 92 -149 40 -107 49 -216 25 -307 -9 -35 -16
-72 -16 -82 0 -10 -19 -61 -43 -112 -36 -76 -50 -127 -79 -278 -20 -102 -41
-213 -46 -246 -6 -34 -20 -81 -32 -105 -11 -24 -36 -116 -55 -204 -27 -131
-41 -173 -74 -233 -32 -58 -42 -90 -50 -155 -16 -128 -38 -214 -82 -316 -22
-51 -46 -127 -54 -169 -8 -41 -37 -132 -63 -201 l-49 -126 7 -101 c4 -55 10
-106 14 -112 5 -8 20 -7 54 6 58 21 81 62 112 202 45 197 102 441 140 600 55
231 60 255 70 343 8 65 17 91 56 160 36 65 51 105 69 193 13 61 31 128 40 150
22 52 78 299 115 504 37 206 60 310 68 310 3 0 16 -10 28 -21 13 -12 41 -23
67 -26 43 -5 46 -4 154 87 l110 93 8 91 c11 144 10 149 -53 251 -44 72 -63 95
-84 100 -16 4 -28 11 -28 16 0 5 -7 9 -15 9 -18 0 -18 1 -4 37 20 52 99 403
99 439 0 20 11 68 24 107 13 40 27 86 30 102 3 17 16 91 30 165 13 74 39 214
56 310 17 96 40 213 50 260 10 47 21 104 24 127 4 23 22 91 42 150 30 92 35
120 34 188 -4 133 -3 164 7 315 5 80 6 164 1 188 -8 46 -4 63 47 185 l29 67
-24 33 c-21 27 -24 41 -21 98 1 45 -6 101 -23 173 -22 91 -26 130 -27 272 -1
146 -3 173 -24 232 -31 89 -104 265 -113 273 -4 3 -29 0 -57 -7z"/>
<path d="M8057 10035 c-52 -40 -57 -59 -26 -99 29 -37 48 -32 96 23 l42 48
-33 32 -32 32 -47 -36z"/>
<path d="M7876 10009 c-30 -24 -33 -46 -8 -65 25 -19 56 -17 86 7 l26 20 -22
30 c-26 34 -46 36 -82 8z"/>
<path d="M6265 9374 c-73 -38 -154 -105 -222 -182 -102 -114 -106 -149 -33
-267 28 -44 58 -93 68 -109 9 -16 28 -41 42 -55 41 -43 154 -360 165 -461 4
-36 20 -102 36 -148 16 -46 29 -97 29 -114 0 -17 6 -72 14 -122 8 -50 19 -149
26 -221 6 -71 17 -157 24 -190 8 -33 24 -104 36 -158 19 -85 21 -104 10 -145
-7 -26 -18 -95 -26 -155 -7 -59 -21 -149 -30 -199 -15 -84 -21 -96 -59 -137
-23 -25 -40 -51 -38 -58 6 -16 -43 -47 -61 -40 -9 4 -26 23 -39 44 -21 34 -32
40 -87 52 -50 11 -80 27 -141 73 -43 33 -93 79 -110 104 -18 24 -49 52 -70 61
-29 14 -40 27 -49 58 -10 35 -34 80 -135 256 -19 33 -42 55 -76 74 -50 27 -89
81 -89 124 0 35 -48 124 -101 185 -28 33 -63 85 -79 116 -16 31 -44 68 -63 83
-19 14 -49 49 -67 76 -17 28 -36 51 -41 51 -4 0 -16 25 -26 56 -37 119 -125
147 -313 99 -129 -32 -149 -50 -175 -154 -21 -86 -16 -160 14 -220 l22 -41
-26 -10 c-41 -15 -50 -49 -31 -108 18 -53 17 -84 -2 -119 -17 -31 -15 -53 6
-53 11 0 27 -9 36 -19 16 -17 16 -26 6 -75 -14 -68 -8 -96 37 -191 36 -76 46
-147 24 -168 -10 -9 -16 -7 -27 8 -29 38 -64 114 -74 162 -22 100 -53 164 -98
201 -66 54 -74 77 -88 257 -14 174 -28 227 -102 388 -40 85 -42 87 -76 87 -53
0 -84 -18 -162 -95 -91 -90 -98 -122 -54 -247 16 -45 40 -117 55 -158 20 -59
37 -86 78 -127 28 -29 57 -53 64 -53 45 0 125 -121 162 -244 15 -51 31 -80 59
-110 26 -27 54 -75 81 -140 59 -139 219 -455 247 -489 13 -16 56 -91 94 -166
38 -76 81 -155 96 -176 14 -21 32 -56 41 -79 9 -22 29 -54 44 -69 16 -16 102
-166 191 -333 90 -168 188 -351 218 -407 106 -198 149 -257 188 -257 37 0 118
57 215 149 l79 76 -5 90 c-3 50 -13 112 -22 138 -15 42 -24 51 -74 77 -46 23
-61 38 -85 82 -17 29 -60 85 -97 124 -37 39 -74 85 -83 102 -9 18 -43 61 -75
96 -33 37 -65 85 -76 113 -25 68 -83 181 -111 219 -13 17 -40 78 -60 135 -20
57 -44 113 -54 124 -10 11 -41 73 -69 138 -38 90 -65 136 -114 195 -110 133
-127 161 -127 205 0 41 -68 269 -102 344 -17 37 -19 58 -14 155 7 143 17 180
61 214 43 32 47 30 111 -74 51 -82 80 -122 118 -162 13 -14 36 -45 51 -70 15
-25 44 -63 65 -85 22 -23 51 -73 70 -118 18 -43 53 -105 79 -139 25 -33 66
-91 91 -128 64 -96 80 -114 127 -143 24 -15 49 -40 58 -57 9 -17 33 -41 55
-55 22 -14 50 -39 62 -56 13 -17 44 -41 69 -54 25 -13 68 -41 95 -63 28 -22
97 -62 153 -89 l103 -50 81 49 c44 26 86 48 94 48 7 0 49 34 93 76 78 75 79
77 108 172 42 136 60 231 66 352 3 58 11 123 17 145 15 55 4 157 -30 257 -26
79 -27 87 -15 153 10 60 9 80 -7 145 -10 42 -23 107 -29 145 -6 39 -21 96 -32
129 -20 54 -20 63 -8 125 8 36 13 75 12 86 -1 37 -45 210 -68 270 -41 109 -51
155 -34 166 26 17 68 1 134 -51 75 -59 98 -92 121 -175 9 -33 32 -99 52 -147
30 -75 44 -94 93 -137 39 -34 68 -72 95 -123 21 -40 55 -88 76 -106 22 -18 55
-63 75 -99 39 -70 115 -138 176 -159 27 -9 37 -21 57 -70 14 -32 50 -95 81
-139 31 -44 62 -90 68 -101 7 -13 39 -33 78 -48 73 -30 94 -49 124 -116 18
-40 28 -48 82 -70 55 -22 65 -31 97 -85 31 -51 46 -65 100 -92 35 -17 80 -47
100 -66 20 -19 51 -43 70 -52 19 -10 55 -38 80 -64 60 -60 160 -145 189 -160
13 -7 51 -15 85 -17 40 -3 84 -15 125 -34 36 -17 70 -30 76 -30 7 0 55 18 108
39 53 22 109 42 124 45 63 11 69 16 97 87 16 38 46 91 66 117 36 46 52 90 65
185 7 57 -25 87 -94 87 -28 0 -71 5 -95 11 -39 10 -48 9 -79 -10 -55 -35 -119
-37 -206 -8 -352 118 -367 124 -482 203 -42 29 -86 55 -97 59 -12 3 -21 10
-21 14 0 5 -18 28 -39 53 -38 43 -119 83 -203 102 -15 3 -35 18 -45 33 -28 41
-72 83 -161 153 -149 117 -216 192 -272 308 -27 56 -58 106 -68 110 -10 4 -43
25 -73 46 -54 38 -58 44 -95 143 -32 85 -45 108 -70 124 -39 24 -124 114 -124
131 0 7 -12 44 -27 83 -29 75 -67 129 -149 211 -49 50 -52 57 -88 185 -71 255
-59 229 -127 274 -33 22 -65 45 -71 53 -26 31 -45 32 -93 6z"/>
<path d="M3940 7333 c-36 -8 -75 -17 -88 -19 -29 -6 -76 -53 -179 -180 -72
-90 -87 -102 -128 -114 -32 -9 -55 -24 -73 -47 -34 -42 -350 -336 -377 -350
-11 -6 -45 -14 -75 -18 -81 -11 -88 -15 -237 -133 -76 -59 -160 -119 -188
-134 -27 -14 -101 -58 -164 -97 -63 -39 -120 -71 -127 -71 -6 0 -58 -36 -114
-80 -99 -78 -104 -80 -156 -80 -30 0 -54 -4 -54 -9 0 -19 -86 -93 -158 -137
-58 -35 -92 -48 -141 -55 -86 -12 -146 -40 -165 -77 -25 -48 -84 -95 -112 -88
-13 4 -44 9 -68 12 -39 6 -45 4 -63 -22 -12 -16 -28 -45 -36 -64 -9 -19 -28
-50 -44 -68 -26 -30 -31 -31 -61 -23 -54 16 -89 3 -132 -48 -51 -59 -77 -135
-84 -241 l-6 -85 89 -66 88 -66 89 -8 c131 -12 151 -9 210 30 60 40 61 41 86
18 17 -15 21 -15 61 7 52 28 77 50 77 65 0 26 -80 76 -138 85 -87 15 -143 68
-157 151 -9 51 2 64 117 138 184 118 204 132 246 166 24 19 60 39 80 45 22 5
57 29 84 55 45 44 48 45 111 45 73 0 80 5 121 88 30 60 60 82 155 113 36 12
108 50 161 85 74 48 112 67 167 79 64 15 74 20 112 65 24 29 52 51 69 55 15 3
65 28 111 55 89 54 101 59 80 33 -13 -15 -12 -15 7 -5 11 6 26 18 33 26 13 15
116 49 186 62 22 3 72 21 112 39 59 27 80 44 125 99 46 57 57 66 87 66 18 0
49 9 67 21 18 11 56 22 83 24 l50 4 32 -57 c18 -31 55 -77 81 -101 42 -39 48
-49 48 -85 0 -23 9 -83 19 -134 13 -69 23 -97 39 -107 l20 -15 -21 -65 -21
-64 27 -25 c33 -31 35 -68 5 -89 l-23 -15 26 -10 c43 -17 62 -105 55 -250 -12
-237 -18 -347 -17 -357 0 -5 3 -55 7 -110 6 -95 5 -104 -26 -194 -19 -56 -33
-120 -35 -160 -3 -36 -9 -100 -14 -141 -6 -41 -18 -131 -27 -200 -9 -69 -22
-150 -29 -180 -8 -30 -21 -100 -29 -155 -19 -125 -94 -468 -95 -436 -1 15 -19
42 -48 70 -38 37 -53 61 -71 118 -18 55 -51 112 -139 240 -63 93 -128 191
-145 220 -16 28 -36 57 -43 63 -8 7 -15 18 -15 24 0 7 -5 17 -11 23 -6 6 -26
44 -45 85 -21 47 -51 91 -83 123 -48 48 -52 56 -85 175 -47 171 -142 365 -234
478 -55 67 -79 129 -87 223 -5 57 -16 107 -37 156 -53 130 -92 165 -148 137
-27 -13 -104 -94 -155 -162 -16 -22 -47 -60 -67 -84 l-38 -45 11 -59 c16 -85
43 -131 120 -204 66 -62 69 -67 69 -112 0 -26 -5 -50 -10 -53 -6 -4 -53 6
-105 20 -67 19 -99 24 -108 17 -6 -6 -37 -17 -67 -26 -78 -23 -89 -32 -46 -39
19 -3 48 -16 65 -28 22 -16 50 -24 105 -28 41 -4 77 -9 79 -11 2 -3 23 -33 45
-67 42 -61 66 -79 94 -68 20 8 28 -5 72 -110 29 -67 51 -104 91 -145 34 -35
71 -91 104 -157 33 -63 73 -125 110 -165 45 -49 64 -80 86 -143 23 -64 39 -90
80 -130 42 -41 57 -66 84 -140 18 -49 39 -101 47 -115 9 -14 22 -41 31 -60 70
-158 112 -231 173 -300 54 -61 72 -90 94 -155 37 -103 45 -216 22 -303 -9 -35
-16 -72 -16 -82 0 -10 -19 -58 -41 -107 -43 -91 -94 -300 -119 -482 -6 -46
-22 -109 -36 -140 -14 -31 -41 -130 -60 -219 -19 -90 -42 -176 -52 -190 -41
-63 -62 -122 -71 -197 -16 -124 -37 -207 -81 -310 -22 -52 -47 -128 -54 -169
-8 -41 -36 -127 -62 -193 -43 -110 -46 -123 -45 -203 3 -156 10 -167 86 -135
57 23 63 44 196 635 16 74 43 185 58 246 16 61 34 147 40 190 17 118 31 183
41 189 27 17 74 130 95 230 13 61 32 135 44 165 26 70 73 277 111 490 41 230
60 310 72 310 5 0 23 -11 40 -25 50 -42 82 -35 173 41 139 115 145 122 145
175 0 25 4 69 10 97 5 30 6 63 0 81 -13 46 -120 211 -137 211 -8 0 -25 8 -37
18 -19 14 -21 22 -14 42 19 51 98 401 98 436 0 19 11 68 24 107 20 62 53 221
95 467 27 154 53 291 71 375 11 50 26 122 34 160 8 39 24 97 36 130 32 90 40
156 29 227 -7 42 -7 90 0 148 15 120 19 257 9 309 -7 39 -3 54 32 137 22 52
40 99 40 106 0 6 -10 22 -22 35 -19 21 -22 33 -19 97 1 52 -5 101 -23 174 -23
88 -26 122 -26 269 l-1 168 -41 110 c-52 140 -94 235 -105 234 -4 -1 -37 -8
-73 -16z"/>
<path d="M1831 5142 c-44 -38 -45 -39 -32 -71 8 -17 23 -37 34 -42 17 -10 27
-4 70 39 l50 51 -32 30 c-18 17 -36 31 -40 31 -3 0 -26 -17 -50 -38z"/>
<path d="M1652 5120 c-27 -25 -28 -48 -4 -66 24 -19 42 -17 80 6 l33 20 -23
30 c-26 35 -55 38 -86 10z"/>
</g>
</svg>
